<svg width="1088" height="626" viewBox="0 0 1088 626" fill="none" xmlns="http://www.w3.org/2000/svg">
<path fill-rule="evenodd" clip-rule="evenodd" d="M673.279 424.84V155.96L595.479 116.36V0L419.199 110.16V424.84H343.079V433.44H427.879V115L586.719 15.64V121.6L664.599 161.52V433.44H746.599V424.84H673.279Z" fill="white"/>
<path fill-rule="evenodd" clip-rule="evenodd" d="M578.043 131.72V37.2002L437.283 125.76V379.32H445.963V130.6L569.363 52.8402V127.24L559.963 122.32V75.0402L519.043 100.88L514.123 98.3202V103.96L455.363 141V326.84H464.123V145.92L514.123 114.16V383.84H522.803V112.56L551.323 127.56V142.12L532.203 131.96V342.44H540.883V146.56L551.323 152.04V326.84H559.963V156.6L569.363 161.52V379.24H578.043V166.12L628.083 192.44V342.44H636.843V187.2L578.043 156.2V141.64L646.163 177.48V383.84H654.883V171.92L578.043 131.72ZM551.323 117.72L527.843 105.48L551.323 90.6803V117.72ZM559.961 146.718L569.361 151.598V137.038L559.961 132.118V146.718Z" fill="white"/>
<path fill-rule="evenodd" clip-rule="evenodd" d="M85.2397 500.837V496.317H5.99976V619.677H10.8798V558.877H76.1997V554.357H10.4798V500.837H85.2397Z" fill="white"/>
<path d="M85.24 496.317V500.837H10.48V554.397H76.16V558.917H10.88V619.717H6V496.357H85.24M91.24 490.317H0V625.677H16.88V564.877H82.16V548.357H16.48V506.797H91.24V490.277V490.317Z" fill="white"/>
<path fill-rule="evenodd" clip-rule="evenodd" d="M135.281 615.159V496.319H130.401V619.679H200.96V615.159H135.281Z" fill="white"/>
<path d="M135.28 496.319V615.159H200.96V619.679H130.36V496.319H135.24M141.28 490.319H124.4V625.679H207V609.159H141.32V490.319H141.28Z" fill="white"/>
<path fill-rule="evenodd" clip-rule="evenodd" d="M326.122 622.679L311.482 585.799H253.002L238.802 622.679H227.162L277.402 493.319H287.482L337.722 622.679H326.122ZM307.482 575.279L282.282 510.199L257.122 575.279H307.442H307.482Z" fill="white"/>
<path d="M285.441 496.319L333.361 619.679H328.161L313.521 582.799H250.961L236.761 619.679H231.561L279.481 496.319H285.441ZM252.761 578.279H311.841L282.281 501.879L252.761 578.279ZM289.561 490.319H275.401L273.921 494.159L226.001 617.519L222.841 625.679H240.921L242.401 621.839L255.121 588.799H309.481L322.601 621.879L324.121 625.679H342.161L339.001 617.519L291.081 494.159L289.601 490.319H289.561ZM261.521 572.279L282.281 518.519L303.081 572.279H261.521Z" fill="white"/>
<path fill-rule="evenodd" clip-rule="evenodd" d="M350.722 496.322V500.842H397.282V619.682H402.202V500.842H448.762V496.322H350.722Z" fill="white"/>
<path d="M448.762 496.322V500.842H402.202V619.682H397.322V500.842H350.762V496.322H448.802M454.762 490.322H344.722V506.842H391.282V625.682H408.162V506.842H454.722V490.322H454.762Z" fill="white"/>
<path fill-rule="evenodd" clip-rule="evenodd" d="M489.198 622.682V493.322H532.198C545.958 493.322 556.878 496.722 564.718 503.482C572.438 510.082 576.518 520.002 576.518 532.162C576.518 544.322 572.678 553.482 565.078 560.402C557.558 567.202 546.718 570.602 532.838 570.602H500.078V622.682H489.198ZM532.198 560.082C542.678 560.082 551.158 557.602 557.398 552.682C563.158 547.962 565.958 541.322 565.958 532.482C565.958 523.082 563.198 516.402 557.318 511.522C551.558 506.402 543.118 503.842 532.198 503.842H500.078V560.082H532.198Z" fill="white"/>
<path d="M532.198 496.322C545.358 496.322 555.478 499.482 562.758 505.762C569.998 511.962 573.518 521.042 573.518 532.162C573.518 543.282 569.998 551.882 563.078 558.162C556.118 564.442 546.078 567.602 532.838 567.602H497.078V619.682H492.198V496.322H532.198ZM497.078 563.082H532.198C543.678 563.082 552.638 560.242 559.238 555.042C565.518 549.882 568.958 542.522 568.958 532.482C568.958 522.442 565.918 514.762 559.238 509.202C552.958 503.642 543.998 500.842 532.198 500.842H497.078V563.082ZM532.198 490.322H486.198V625.682H503.078V573.602H532.838C547.478 573.602 559.038 569.922 567.078 562.602C575.318 555.122 579.518 544.882 579.518 532.162C579.518 519.442 575.078 508.402 566.678 501.202C558.318 494.002 546.718 490.322 532.198 490.322ZM503.078 506.842H532.198C542.358 506.842 550.118 509.162 555.278 513.682C560.558 518.082 562.958 524.042 562.958 532.482C562.958 540.362 560.478 546.242 555.438 550.402C549.838 554.802 541.998 557.082 532.198 557.082H503.078V506.842Z" fill="white"/>
<path fill-rule="evenodd" clip-rule="evenodd" d="M674.643 566.119C683.323 564.439 689.963 560.559 695.523 554.359C700.723 547.759 703.443 540.439 703.443 532.159C703.443 521.039 699.683 512.359 692.043 506.079C684.443 499.479 674.323 496.319 661.483 496.319H620.763V619.679H625.643V566.839H670.123L703.883 619.999H708.683V618.959L674.643 566.119ZM665.963 562.359H625.643V500.839H661.483C672.963 500.839 682.283 503.639 688.923 509.199C695.523 514.759 698.963 521.999 698.963 531.759C699.123 540.039 695.843 547.919 689.963 553.639C683.723 559.519 675.683 562.359 665.963 562.359Z" fill="white"/>
<path d="M661.483 496.319C674.323 496.319 684.443 499.479 692.043 506.079C699.683 512.359 703.443 521.039 703.443 532.159C703.443 540.439 700.723 547.759 695.523 554.359C689.963 560.559 683.323 564.439 674.643 566.119L708.683 618.959V619.999H703.883L670.123 566.839H625.643V619.679H620.763V496.319H661.483ZM625.643 562.359H665.963C675.683 562.359 683.723 559.519 689.963 553.639C695.843 547.919 699.123 540.039 698.963 531.759C698.963 521.999 695.523 514.759 688.923 509.199C682.283 503.639 672.963 500.839 661.483 500.839H625.643V562.359ZM661.483 490.319H614.763V625.679H631.643V572.839H666.843L698.843 623.199L700.603 625.999H714.683V617.199L713.723 615.719L684.043 569.639C690.123 567.239 695.403 563.479 700.003 558.399L700.123 558.239L700.243 558.079C706.363 550.319 709.443 541.599 709.443 532.159C709.443 519.199 704.883 508.839 695.843 501.439C687.283 493.999 675.963 490.319 661.483 490.319ZM631.643 506.839H661.483C671.603 506.839 679.563 509.199 685.083 513.799C690.483 518.319 692.963 524.039 692.963 531.759C693.083 538.399 690.483 544.759 685.763 549.319C680.763 554.039 674.283 556.359 665.963 556.359H631.643V506.839Z" fill="white"/>
<path d="M768.482 496.319H763.602V619.679H768.482V496.319Z" fill="white"/>
<path d="M768.522 496.319V619.679H763.642V496.319H768.522ZM774.522 490.319H757.642V625.679H774.522V490.319Z" fill="white"/>
<path fill-rule="evenodd" clip-rule="evenodd" d="M940.925 496.322L888.085 613.082L835.245 496.322H828.245V619.682H833.165V503.642L886.005 619.682H889.765L943.005 502.922V619.682H947.845V496.322H940.925Z" fill="white"/>
<path d="M947.843 496.322V619.682H943.043V502.922L889.803 619.682H886.043L833.203 503.642V619.682H828.283V496.322H835.283L888.123 613.082L940.963 496.322H947.883M953.843 490.322H937.083L935.483 493.842L888.123 598.522L840.763 493.842L839.163 490.322H822.323V625.682H839.243V531.322L880.603 622.202L882.203 625.722H893.683L895.283 622.202L937.083 530.562V625.682H953.883V490.322H953.843Z" fill="white"/>
<path fill-rule="evenodd" clip-rule="evenodd" d="M1082 500.839V496.319H1004.2V619.679H1082V615.159H1008.68V558.559H1072.92V553.959H1008.68V500.839H1082Z" fill="white"/>
<path d="M1082 496.319V500.839H1008.68V553.959H1072.92V558.559H1008.68V615.159H1082V619.679H1004.2V496.319H1082ZM1088 490.319H998.2V625.679H1088V609.159H1014.68V564.559H1078.92V547.959H1014.68V506.839H1088V490.319Z" fill="white"/>
</svg>
